<?xml version="1.0" encoding="UTF-8"?>
<!DOCTYPE svg PUBLIC "-//W3C//DTD SVG 1.1//EN" "http://www.w3.org/Graphics/SVG/1.1/DTD/svg11.dtd">
<!-- Creator: CorelDRAW 2021 (64 Bit) -->
<svg xmlns="http://www.w3.org/2000/svg" xml:space="preserve" width="210mm" height="297mm" version="1.1" style="shape-rendering:geometricPrecision; text-rendering:geometricPrecision; image-rendering:optimizeQuality; fill-rule:evenodd; clip-rule:evenodd"
viewBox="0 0 21000 29700"
 xmlns:xlink="http://www.w3.org/1999/xlink"
 xmlns:xodm="http://www.corel.com/coreldraw/odm/2003">
 <defs>
  <style type="text/css">
   <![CDATA[
    .fil0 {fill:#007396}
    .fil1 {fill:#007396;fill-rule:nonzero}
    .fil2 {fill:#FFB549;fill-rule:nonzero}
   ]]>
  </style>
 </defs>
 <g id="Camada_x0020_1">
  <metadata id="CorelCorpID_0Corel-Layer"/>
  <g id="_3321027174064">
   <g id="g86" data-paper-data="{&quot;fillRule&quot;:&quot;evenodd&quot;,&quot;fillRuleOriginal&quot;:&quot;evenodd&quot;,&quot;isIcon&quot;:true,&quot;iconStyle&quot;:&quot;standalone&quot;,&quot;selectedEffects&quot;:{&quot;container&quot;:&quot;&quot;,&quot;transformation&quot;:&quot;&quot;,&quot;pattern&quot;:&quot;&quot;},&quot;bounds&quot;:{&quot;x&quot;:65.00000000000001,&quot;y&quot;:199.65183838798936,&quot;width&quot;:65.99971903511828,&quot;height&quot;:70.69632322402123},&quot;iconType&quot;:&quot;icon&quot;,&quot;rawIconId&quot;:&quot;6898138&quot;,&quot;isDetailed&quot;:false,&quot;suitableAsStandaloneIcon&quot;:true}">
    <path id="path84" class="fil0" d="M4994.7 15031.37c-35.83,-7.55 -73,-11.53 -111.09,-11.53l-1873.58 0c-295.76,0 -535.31,239.55 -535.31,535.31l0 645.03 267.66 0 0 -645.03c0,-147.21 120.44,-267.65 267.65,-267.65l1873.58 -0.01c39.57,0 77.21,8.7 111.09,24.29l0 -280.41zm-1923.09 -955.04c29.44,0 58.89,-9.37 82.98,-29.44 227.51,-182.01 501.86,-278.36 792.25,-278.36 290.4,0 564.77,96.36 790.94,278.36 57.55,46.84 141.86,37.47 188.69,-20.07 46.84,-57.55 37.47,-141.86 -20.07,-188.69 -274.34,-220.82 -606.23,-337.25 -959.54,-337.25 -353.3,0 -682.53,116.43 -959.52,337.25 -57.55,45.5 -66.92,129.81 -21.41,188.69 26.76,33.46 65.57,50.85 104.39,50.85l1.29 -1.34zm1458.74 290.44c40.13,-0.01 80.26,-17.41 105.68,-52.19 45.5,-58.89 33.45,-143.2 -24.09,-187.36 -192.71,-147.21 -422.9,-226.17 -665.11,-226.17 -242.21,0 -475.09,80.3 -665.1,226.17 -58.89,45.5 -69.59,128.47 -24.09,187.36 45.5,58.88 128.47,69.59 187.36,24.09 143.2,-109.74 321.19,-169.97 501.85,-169.97 180.68,0 357.32,58.89 501.87,169.97 24.09,18.73 53.53,28.1 81.63,28.1zm-948.86 45.48c-61.56,40.15 -78.96,123.12 -38.81,184.68 40.15,61.56 123.12,78.96 184.68,38.81 131.14,-85.65 309.13,-85.65 440.27,0 22.75,14.72 48.18,21.41 72.27,21.41 44.16,0 86.98,-21.41 112.42,-61.56 40.15,-61.56 22.75,-144.53 -38.81,-184.68 -218.14,-141.86 -513.89,-141.86 -732.04,0l0.02 1.34zm1168.29 1142.9l-401.48 0c-73.61,0 -133.83,60.22 -133.83,133.83 0,73.61 60.22,133.83 133.83,133.83l401.48 0c73.61,0 133.83,-60.22 133.83,-133.83 0,-73.61 -60.22,-133.83 -133.83,-133.83z" data-paper-data="{&quot;isPathIcon&quot;:true}"/>
   </g>
   <g data-paper-data="{&quot;isPrimaryText&quot;:true}">
    <path class="fil1" d="M7833.67 14903.6l-79.7 -79.83 -0.51 -0.37 -0.4 0.37c-123.24,123.25 -297.97,171.76 -467.38,129.89l-1.16 -0.26 33.41 97 40.3 116.6 0.14 0.52 0.37 0c15.62,1.05 31.07,1.56 46.43,1.56 81.64,0 161.85,-14.3 238.83,-42.52 94.64,-34.69 179.27,-88.8 251.18,-160.82l0.37 -0.4 -61.35 -61.49 -0.53 -0.25zm-852.09 -828.43l33.29 96.46 0.4 1.17 0.64 -0.91c12.11,-15.45 25.48,-30.67 40.05,-45.24 192.16,-192.15 504.96,-192.29 697.11,-0.12l0.4 0.51 62.67 -62.67 79.04 -78.91 0.38 -0.4 -0.38 -0.51c-126.38,-126.24 -294.21,-198.41 -472.84,-202.95 -5.99,-0.14 -11.97,-0.25 -17.96,-0.25 -171.48,0 -335.17,62.53 -462.7,177.07l-0.26 0.25 30.02 87.25 10.14 29.25zm-245.71 -293.7l-212.05 0 -316.83 918.79 -29.78 86.2 -39 113.38 -92.57 268.34 -0.26 0.91 212.3 0 92.57 -268.34 559.19 0 92.44 267.82 0.11 0.52 212.44 0 -478.43 -1387.22 -0.13 -0.4zm-316.32 918.41l210.36 -609.77 210.35 609.77 -420.71 0z" data-paper-data="{&quot;glyphName&quot;:&quot;&quot;,&quot;glyphIndex&quot;:0,&quot;firstGlyphOfWord&quot;:true,&quot;word&quot;:1}"/>
    <polygon class="fil1" points="9221.32,13982.31 9221.32,13781.44 8052.65,13781.43 8052.65,15169.04 9221.32,15169.04 9221.32,14968.18 8253.51,14968.18 8253.51,14575.68 8915.79,14575.68 8915.79,14374.81 8253.51,14374.81 8253.51,13982.31 " data-paper-data="{&quot;glyphName&quot;:&quot;E&quot;,&quot;glyphIndex&quot;:1,&quot;word&quot;:1}"/>
    <path class="fil1" d="M10418.27 14179.14l0 -0.65c0,-106.09 -41.34,-205.81 -116.35,-280.82 -75.02,-75.01 -174.74,-116.23 -280.83,-116.23l-374.43 -0.01c-218.94,0 -397.18,178.11 -397.18,397.18 0,218.94 178.24,397.06 397.18,397.06l374.43 0.13c108.17,0 196.19,87.89 196.19,196.06 0,108.3 -88.02,196.45 -196.19,196.45l-374.43 -0.13c-108.17,0 -196.18,-88.02 -196.18,-196.06l0 -0.66 -201 0.01 0 0.65c0,218.81 178.24,396.93 397.18,396.93l374.43 -0.01c106.1,0 205.81,-41.35 280.83,-116.36 75.01,-74.89 116.35,-174.74 116.35,-280.82 0,-218.94 -178.11,-396.92 -397.18,-396.92l-374.43 -0.13c-108.17,0 -196.18,-88.02 -196.18,-196.19 0,-108.3 88.01,-196.31 196.18,-196.31l374.43 0c108.17,0 196.19,88.01 196.19,196.18l0 0.65 200.99 0z" data-paper-data="{&quot;glyphName&quot;:&quot;S&quot;,&quot;glyphIndex&quot;:2,&quot;word&quot;:1}"/>
    <path class="fil1" d="M11714.18 14179.14l0 -0.65c0,-106.09 -41.35,-205.81 -116.36,-280.82 -75.01,-75.01 -174.74,-116.23 -280.82,-116.23l-374.44 -0.01c-218.93,0 -397.18,178.11 -397.18,397.18 0,218.94 178.25,397.06 397.18,397.06l374.44 0.13c108.16,0 196.18,87.89 196.18,196.06 0,108.3 -88.02,196.45 -196.18,196.45l-374.44 -0.13c-108.16,0 -196.18,-88.02 -196.18,-196.06l0 -0.66 -201 0.01 0 0.65c0,218.81 178.25,396.93 397.18,396.93l374.44 -0.01c106.09,0 205.81,-41.35 280.82,-116.36 75.01,-74.89 116.36,-174.74 116.36,-280.82 0,-218.94 -178.11,-396.92 -397.18,-396.92l-374.44 -0.13c-108.16,0 -196.18,-88.02 -196.18,-196.19 0,-108.3 88.02,-196.31 196.18,-196.31l374.44 0c108.16,0 196.18,88.01 196.18,196.18l0 0.65 201 0z" data-paper-data="{&quot;glyphName&quot;:&quot;S&quot;,&quot;glyphIndex&quot;:3,&quot;word&quot;:1}"/>
    <path class="fil1" d="M13144.7 14205.14c-34.97,-82.55 -84.9,-156.79 -148.73,-220.5 -63.71,-63.7 -137.82,-113.76 -220.5,-148.73 -85.55,-36.15 -176.43,-54.48 -270.03,-54.48 -93.74,0 -184.62,18.33 -270.17,54.48 -82.55,34.97 -156.79,85.02 -220.5,148.73 -63.7,63.71 -113.76,137.94 -148.73,220.5 -36.15,85.55 -54.48,176.43 -54.48,270.17 0,93.6 18.33,184.48 54.48,270.03 34.97,82.55 85.02,156.79 148.73,220.5 63.71,63.7 137.94,113.76 220.5,148.6 85.55,36.27 176.43,54.61 270.17,54.61 93.6,0 184.48,-18.33 270.03,-54.61 82.68,-34.84 156.79,-84.9 220.5,-148.6 63.83,-63.71 113.76,-137.94 148.73,-220.5 36.15,-85.55 54.61,-176.43 54.61,-270.03 0,-93.74 -18.46,-184.62 -54.61,-270.17zm-639.26 763.04c-271.85,0 -493.01,-221.16 -493.01,-492.87 0,-271.85 221.16,-493 493.01,-493 271.72,0 493,221.15 493,493 0,271.72 -221.28,492.87 -493,492.87z" data-paper-data="{&quot;glyphName&quot;:&quot;O&quot;,&quot;glyphIndex&quot;:4,&quot;lastGlyphOfWord&quot;:true,&quot;word&quot;:1}"/>
    <polygon class="fil1" points="14213.89,14968.18 14213.89,13781.44 14013.02,13781.43 14013.02,15169.04 15181.69,15169.04 15181.69,14968.18 " data-paper-data="{&quot;glyphName&quot;:&quot;L&quot;,&quot;glyphIndex&quot;:5,&quot;firstGlyphOfWord&quot;:true,&quot;word&quot;:2}"/>
    <path class="fil1" d="M17042.59 14823.25l-0.53 0.51c-170.32,170.45 -436.43,193.2 -632.76,54.21 84.26,-118.03 128.84,-257.28 128.84,-402.76 0,-145.48 -44.58,-284.86 -128.84,-402.78 196.33,-138.98 462.33,-116.24 632.76,54.09l0.53 0.52 141.71 -141.58 0.39 -0.4 -0.39 -0.51c-120.27,-120.14 -279.92,-191.91 -449.57,-201.91 -167.97,-10.01 -333.48,41.1 -465.83,143.8 -59.41,-46.15 -125.33,-81.92 -196.05,-106.61 -73.34,-25.48 -150.16,-38.47 -228.57,-38.47 -93.61,0 -184.48,18.33 -270.03,54.46 -82.68,34.98 -156.79,85.03 -220.63,148.74 -63.71,63.7 -113.76,137.93 -148.6,220.5 -36.28,85.54 -54.61,176.41 -54.61,270.15 0,93.61 18.33,184.48 54.61,270.03 34.83,82.57 84.89,156.79 148.6,220.5 63.84,63.7 137.95,113.75 220.63,148.73 85.54,36.15 176.42,54.47 270.03,54.47 78.41,0 155.23,-13 228.57,-38.48 70.72,-24.69 136.64,-60.58 196.05,-106.6 121.56,94.37 270.95,145.22 424.73,145.22 13.65,0 27.31,-0.4 41.1,-1.31 169.54,-9.86 329.19,-81.63 449.57,-202.03l0.39 -0.4 -142.1 -142.09zm-1010.45 -138.47c21.84,69.18 54.36,134.19 96.46,193.2 -83.32,58.91 -181.62,90.1 -284.32,90.1 -271.73,0 -492.86,-221.13 -492.86,-492.86 0,-271.86 221.13,-493 492.86,-493 102.7,0 201,31.19 284.32,90.1 -42.1,59.01 -74.62,123.88 -96.46,193.06 -21.46,67.87 -32.37,138.33 -32.37,209.7 0,71.38 10.92,141.83 32.37,209.7zm236.75 40.84c-91.27,-154.59 -91.27,-346.22 0,-500.8 44.72,75.39 68.38,161.99 68.38,250.4 0,88.14 -23.66,174.73 -68.38,250.4z" data-paper-data="{&quot;glyphName&quot;:&quot;&quot;,&quot;glyphIndex&quot;:6,&quot;word&quot;:2}"/>
    <polygon class="fil1" points="18510.37,13782.48 18511.02,13781.43 18269.46,13781.43 17542.83,14867.93 17542.83,13781.43 17341.95,13781.43 17341.95,15169.04 17583.13,15169.04 17926.23,14655.89 18269.33,15168.78 18269.46,15169.04 18511.01,15169.04 18047.14,14475.17 " data-paper-data="{&quot;glyphName&quot;:&quot;K&quot;,&quot;glyphIndex&quot;:7,&quot;lastGlyphOfWord&quot;:true,&quot;word&quot;:2}"/>
   </g>
   <g data-paper-data="{&quot;isSecondaryText&quot;:true}">
    <path class="fil2" d="M6282.43 15662.88l-107.93 0 -34.83 98.61 -58.87 0 122.65 -343.4 50.04 0 122.65 343.4 -58.88 0 -34.83 -98.61zm-89.29 -52.49l70.16 0c-3.28,-9.49 -6.3,-17.99 -9.08,-25.51 -2.77,-7.52 -5.47,-14.97 -8.09,-22.32 -2.62,-7.36 -5.31,-14.97 -8.09,-22.82 -2.78,-7.85 -5.98,-17.01 -9.57,-27.47l-35.33 98.12z" data-paper-data="{&quot;glyphName&quot;:&quot;A&quot;,&quot;glyphIndex&quot;:0,&quot;firstGlyphOfWord&quot;:true,&quot;word&quot;:1}"/>
    <path class="fil2" d="M6497.96 15587.83c0,-22.57 3.02,-44.32 9.07,-65.25 6.05,-20.93 15.37,-39.49 27.96,-55.68 12.59,-16.18 28.54,-29.11 47.84,-38.75 19.29,-9.65 42.02,-14.47 68.18,-14.47 27.8,0 51.92,5.56 72.36,16.69 20.44,11.11 38.84,26.33 55.19,45.62l-38.75 34.33c-14.07,-17.33 -28.21,-28.94 -42.44,-34.83 -14.23,-5.89 -29.35,-8.83 -45.38,-8.83 -17.33,0 -32.37,3.36 -45.13,10.06 -12.76,6.71 -23.31,15.7 -31.64,26.98 -8.34,11.28 -14.47,24.28 -18.4,39 -3.92,14.72 -5.89,29.93 -5.89,45.62 0,15.7 1.96,30.91 5.89,45.62 3.92,14.73 10.05,27.8 18.4,39.25 8.33,11.45 18.88,20.6 31.64,27.47 12.75,6.87 27.79,10.31 45.13,10.31 16.03,0 31.24,-3.19 45.62,-9.57 14.39,-6.37 28.46,-18.23 42.19,-35.57l38.75 34.34c-16.02,19.3 -34.33,34.67 -54.95,46.12 -20.6,11.44 -44.8,17.16 -72.6,17.16 -26.16,0 -48.89,-4.99 -68.18,-14.96 -19.3,-9.97 -35.25,-23.14 -47.84,-39.49 -12.59,-16.35 -21.91,-35.07 -27.96,-56.17 -6.05,-21.1 -9.07,-42.76 -9.07,-65l0.01 0z" data-paper-data="{&quot;glyphName&quot;:&quot;C&quot;,&quot;glyphIndex&quot;:1,&quot;word&quot;:1}"/>
    <polygon class="fil2" points="6900.39,15761.49 6900.39,15418.09 7112.33,15418.09 7112.33,15471.07 6953.37,15471.07 6953.37,15556.92 7098.1,15556.92 7098.1,15609.9 6953.37,15609.91 6953.37,15708.52 7113.79,15708.51 7113.79,15761.48 " data-paper-data="{&quot;glyphName&quot;:&quot;E&quot;,&quot;glyphIndex&quot;:2,&quot;word&quot;:1}"/>
    <path class="fil2" d="M7439.21 15501c-9.16,-11.12 -19.22,-19.13 -30.17,-24.04 -10.96,-4.91 -23.8,-7.36 -38.51,-7.36 -18.97,0 -33.77,3.68 -44.4,11.04 -10.63,7.35 -15.95,16.27 -15.95,26.73 0,6.54 2.38,12.35 7.12,17.42 4.74,5.08 10.87,9.65 18.4,13.74 7.52,4.09 15.7,7.93 24.53,11.53 8.83,3.59 17.5,6.87 26,9.81l-0.49 0c9.48,3.27 20.19,7.52 32.13,12.75 11.93,5.23 23.22,11.93 33.85,20.12 10.63,8.17 19.62,17.98 26.98,29.43 7.35,11.45 11.03,25.02 11.03,40.72 0,16.35 -3.1,30.83 -9.31,43.42 -6.22,12.59 -14.89,23.14 -26,31.64 -11.12,8.51 -24.12,14.96 -39.01,19.38 -14.88,4.42 -30.99,6.62 -48.32,6.62 -24.53,0 -47.42,-5.24 -68.68,-15.7 -21.26,-10.47 -42.18,-27.14 -62.79,-50.04l43.17 -35.33c11.77,16.35 25.1,28.3 39.98,35.81 14.89,7.52 31.15,11.29 48.82,11.29 10.13,0 19.38,-0.98 27.71,-2.94 8.34,-1.96 15.54,-4.74 21.59,-8.34 6.05,-3.59 10.79,-7.85 14.23,-12.75 3.43,-4.91 5.15,-10.3 5.15,-16.19 0,-8.17 -2.46,-15.37 -7.36,-21.58 -4.91,-6.21 -11.11,-11.69 -18.64,-16.43 -7.52,-4.74 -16.03,-8.83 -25.51,-12.27 -9.49,-3.43 -18.65,-6.62 -27.48,-9.57l-11.77 -4.41c-11.12,-3.92 -22,-8.1 -32.63,-12.51 -10.63,-4.42 -20.2,-10.14 -28.7,-17.17 -8.5,-7.03 -15.36,-15.78 -20.6,-26.24 -5.23,-10.47 -7.85,-23.38 -7.85,-38.75 0,-12.11 2.12,-23.88 6.38,-35.33 4.25,-11.45 10.95,-21.5 20.11,-30.17 9.16,-8.67 20.93,-15.62 35.33,-20.85 14.39,-5.23 31.73,-7.85 52,-7.85 11.77,0 23.06,0.98 33.85,2.94 10.79,1.96 21.26,5.32 31.39,10.06 10.14,4.74 20.03,10.95 29.68,18.64 9.65,7.69 19.22,17.25 28.7,28.7l-45.62 36.3 -8.34 -12.27z" data-paper-data="{&quot;glyphName&quot;:&quot;S&quot;,&quot;glyphIndex&quot;:3,&quot;word&quot;:1}"/>
    <path class="fil2" d="M7818.59 15501c-9.16,-11.12 -19.22,-19.13 -30.18,-24.04 -10.95,-4.91 -23.79,-7.36 -38.5,-7.36 -18.97,0 -33.77,3.68 -44.4,11.04 -10.63,7.35 -15.95,16.27 -15.95,26.73 0,6.54 2.38,12.35 7.11,17.42 4.74,5.08 10.88,9.65 18.4,13.74 7.52,4.09 15.71,7.93 24.54,11.53 8.83,3.59 17.5,6.87 26,9.81l-0.49 0c9.49,3.27 20.2,7.52 32.13,12.75 11.94,5.23 23.22,11.93 33.85,20.12 10.63,8.17 19.63,17.98 26.98,29.43 7.36,11.45 11.04,25.02 11.04,40.72 0,16.35 -3.1,30.83 -9.32,43.42 -6.21,12.59 -14.88,23.14 -26,31.64 -11.11,8.51 -24.12,14.96 -39,19.38 -14.88,4.42 -30.99,6.62 -48.32,6.62 -24.53,0 -47.42,-5.24 -68.68,-15.7 -21.26,-10.47 -42.19,-27.14 -62.79,-50.04l43.16 -35.33c11.78,16.35 25.1,28.3 39.99,35.81 14.88,7.52 31.15,11.29 48.81,11.29 10.14,0 19.38,-0.98 27.72,-2.94 8.34,-1.96 15.53,-4.74 21.58,-8.34 6.06,-3.59 10.8,-7.85 14.23,-12.75 3.44,-4.91 5.15,-10.3 5.15,-16.19 0,-8.17 -2.45,-15.37 -7.35,-21.58 -4.91,-6.21 -11.12,-11.69 -18.65,-16.43 -7.51,-4.74 -16.02,-8.83 -25.51,-12.27 -9.49,-3.43 -18.64,-6.62 -27.47,-9.57l-11.77 -4.41c-11.12,-3.92 -22,-8.1 -32.63,-12.51 -10.63,-4.42 -20.2,-10.14 -28.7,-17.17 -8.51,-7.03 -15.37,-15.78 -20.6,-26.24 -5.24,-10.47 -7.85,-23.38 -7.85,-38.75 0,-12.11 2.12,-23.88 6.37,-35.33 4.26,-11.45 10.96,-21.5 20.12,-30.17 9.16,-8.67 20.93,-15.62 35.33,-20.85 14.38,-5.23 31.72,-7.85 51.99,-7.85 11.78,0 23.06,0.98 33.85,2.94 10.8,1.96 21.26,5.32 31.4,10.06 10.13,4.74 20.03,10.95 29.68,18.64 9.65,7.69 19.22,17.25 28.69,28.7l-45.62 36.3 -8.34 -12.27z" data-paper-data="{&quot;glyphName&quot;:&quot;S&quot;,&quot;glyphIndex&quot;:4,&quot;word&quot;:1}"/>
    <path class="fil2" d="M8262.24 15588.31c0,-16.02 -2.21,-31.39 -6.62,-46.11 -4.42,-14.73 -11.12,-27.72 -20.12,-39.01 -8.99,-11.28 -20.2,-20.2 -33.61,-26.73 -13.41,-6.54 -29.11,-9.82 -47.09,-9.82 -17.67,0 -33.2,3.28 -46.61,9.82 -13.41,6.53 -24.53,15.36 -33.35,26.49 -8.83,11.11 -15.53,24.04 -20.12,38.75 -4.58,14.72 -6.87,30.25 -6.87,46.6 0,16.35 2.29,31.89 6.87,46.61 4.58,14.72 11.29,27.71 20.12,39 8.83,11.29 19.94,20.28 33.35,26.98 13.41,6.71 28.94,10.05 46.61,10.05 17.98,0 33.68,-3.27 47.09,-9.81 13.41,-6.54 24.62,-15.45 33.61,-26.73 8.99,-11.29 15.7,-24.29 20.12,-39.01 4.41,-14.72 6.62,-30.41 6.62,-47.1l0 0.02zm53.47 -0.48c0,22.89 -3.35,44.96 -10.05,66.22 -6.71,21.26 -16.85,39.99 -30.42,56.17 -13.57,16.19 -30.41,29.2 -50.53,39.01 -20.12,9.81 -43.42,14.72 -69.91,14.72 -26.49,0 -49.71,-4.91 -69.66,-14.72 -19.94,-9.81 -36.71,-22.82 -50.28,-39.01 -13.57,-16.18 -23.71,-34.91 -30.41,-56.17 -6.71,-21.26 -10.06,-43.34 -10.06,-66.22 0,-22.57 3.36,-44.4 10.06,-65.49 6.71,-21.1 16.84,-39.65 30.41,-55.68 13.57,-16.02 30.34,-28.86 50.28,-38.51 19.95,-9.65 43.17,-14.47 69.66,-14.47 26.5,0 49.8,4.82 69.91,14.47 20.12,9.65 36.95,22.49 50.53,38.51 13.57,16.03 23.72,34.59 30.42,55.68 6.7,21.1 10.05,42.92 10.05,65.49z" data-paper-data="{&quot;glyphName&quot;:&quot;O&quot;,&quot;glyphIndex&quot;:5,&quot;lastGlyphOfWord&quot;:true,&quot;word&quot;:1}"/>
    <path class="fil2" d="M8866.96 15501c-9.16,-11.12 -19.22,-19.13 -30.18,-24.04 -10.95,-4.91 -23.79,-7.36 -38.51,-7.36 -18.96,0 -33.76,3.68 -44.39,11.04 -10.63,7.35 -15.95,16.27 -15.95,26.73 0,6.54 2.37,12.35 7.11,17.42 4.74,5.08 10.88,9.65 18.4,13.74 7.52,4.09 15.71,7.93 24.54,11.53 8.83,3.59 17.5,6.87 26,9.81l-0.5 0c9.49,3.27 20.2,7.52 32.13,12.75 11.94,5.23 23.23,11.93 33.86,20.12 10.62,8.17 19.62,17.98 26.97,29.43 7.36,11.45 11.04,25.02 11.04,40.72 0,16.35 -3.1,30.83 -9.32,43.42 -6.21,12.59 -14.88,23.14 -26,31.64 -11.11,8.51 -24.12,14.96 -39,19.38 -14.88,4.42 -30.99,6.62 -48.32,6.62 -24.53,0 -47.42,-5.24 -68.68,-15.7 -21.26,-10.47 -42.19,-27.14 -62.79,-50.04l43.17 -35.33c11.77,16.35 25.1,28.3 39.98,35.81 14.88,7.52 31.15,11.29 48.81,11.29 10.14,0 19.38,-0.98 27.72,-2.94 8.34,-1.96 15.53,-4.74 21.58,-8.34 6.06,-3.59 10.8,-7.85 14.23,-12.75 3.44,-4.91 5.15,-10.3 5.15,-16.19 0,-8.17 -2.45,-15.37 -7.35,-21.58 -4.91,-6.21 -11.12,-11.69 -18.64,-16.43 -7.52,-4.74 -16.03,-8.83 -25.52,-12.27 -9.49,-3.43 -18.64,-6.62 -27.47,-9.57l-11.77 -4.41c-11.12,-3.92 -22,-8.1 -32.63,-12.51 -10.63,-4.42 -20.2,-10.14 -28.7,-17.17 -8.51,-7.03 -15.37,-15.78 -20.6,-26.24 -5.24,-10.47 -7.85,-23.38 -7.85,-38.75 0,-12.11 2.12,-23.88 6.37,-35.33 4.26,-11.45 10.96,-21.5 20.12,-30.17 9.16,-8.67 20.93,-15.62 35.33,-20.85 14.39,-5.23 31.72,-7.85 51.99,-7.85 11.78,0 23.06,0.98 33.85,2.94 10.8,1.96 21.26,5.32 31.4,10.06 10.14,4.74 20.03,10.95 29.68,18.64 9.65,7.69 19.22,17.25 28.69,28.7l-45.62 36.3 -8.33 -12.27z" data-paper-data="{&quot;glyphName&quot;:&quot;S&quot;,&quot;glyphIndex&quot;:6,&quot;firstGlyphOfWord&quot;:true,&quot;word&quot;:2}"/>
    <polygon class="fil2" points="9042.75,15761.49 9042.75,15418.09 9095.72,15418.09 9095.72,15761.49 " data-paper-data="{&quot;glyphName&quot;:&quot;I&quot;,&quot;glyphIndex&quot;:7,&quot;word&quot;:2}"/>
    <polygon class="fil2" points="9472.65,15761.49 9472.65,15527.98 9371.6,15692.81 9269.07,15530.92 9269.07,15761.48 9217.55,15761.49 9217.55,15418.09 9258.28,15418.09 9371.6,15598.62 9484.92,15418.09 9525.15,15418.09 9525.15,15761.49 " data-paper-data="{&quot;glyphName&quot;:&quot;M&quot;,&quot;glyphIndex&quot;:8,&quot;word&quot;:2}"/>
    <path class="fil2" d="M9699.46 15622.66l0 138.83 -52.49 0 0 -343.4 130 0c14.07,0 27.32,2.7 39.75,8.09 12.42,5.4 23.3,12.76 32.62,22.08 9.32,9.32 16.68,20.2 22.08,32.63 5.4,12.43 8.09,25.67 8.09,39.74 0,14.07 -2.69,27.31 -8.09,39.74 -5.4,12.43 -12.75,23.22 -22.08,32.38 -9.31,9.15 -20.2,16.43 -32.62,21.82 -12.43,5.4 -25.68,8.1 -39.75,8.1l-77.51 -0.01zm0 -52.98l77.51 0c6.88,0 13.25,-1.22 19.13,-3.68 5.89,-2.45 11.12,-5.89 15.7,-10.31 4.58,-4.41 8.18,-9.65 10.8,-15.7 2.61,-6.05 3.92,-12.51 3.92,-19.38 0,-6.87 -1.31,-13.25 -3.92,-19.13 -2.62,-5.89 -6.22,-11.03 -10.8,-15.45 -4.57,-4.41 -9.81,-8.01 -15.7,-10.79 -5.89,-2.78 -12.26,-4.17 -19.13,-4.17l-77.51 0 0 98.61z" data-paper-data="{&quot;glyphName&quot;:&quot;P&quot;,&quot;glyphIndex&quot;:9,&quot;word&quot;:2}"/>
    <polygon class="fil2" points="10001.34,15761.49 10001.34,15418.09 10054.31,15418.09 10054.31,15708.52 10214.24,15708.51 10214.24,15761.48 " data-paper-data="{&quot;glyphName&quot;:&quot;L&quot;,&quot;glyphIndex&quot;:10,&quot;word&quot;:2}"/>
    <polygon class="fil2" points="10336.07,15761.49 10336.07,15418.09 10547.99,15418.09 10547.99,15471.07 10389.05,15471.07 10389.05,15556.92 10533.77,15556.92 10533.77,15609.9 10389.05,15609.91 10389.05,15708.52 10549.47,15708.51 10549.47,15761.48 " data-paper-data="{&quot;glyphName&quot;:&quot;E&quot;,&quot;glyphIndex&quot;:11,&quot;word&quot;:2}"/>
    <path class="fil2" d="M10874.89 15501c-9.16,-11.12 -19.22,-19.13 -30.17,-24.04 -10.96,-4.91 -23.8,-7.36 -38.51,-7.36 -18.97,0 -33.77,3.68 -44.4,11.04 -10.63,7.35 -15.95,16.27 -15.95,26.73 0,6.54 2.38,12.35 7.12,17.42 4.74,5.08 10.87,9.65 18.4,13.74 7.51,4.09 15.7,7.93 24.53,11.53 8.83,3.59 17.5,6.87 26,9.81l-0.5 0c9.49,3.27 20.2,7.52 32.14,12.75 11.93,5.23 23.22,11.93 33.85,20.12 10.63,8.17 19.62,17.98 26.98,29.43 7.35,11.45 11.03,25.02 11.03,40.72 0,16.35 -3.1,30.83 -9.32,43.42 -6.21,12.59 -14.88,23.14 -26,31.64 -11.11,8.51 -24.11,14.96 -39,19.38 -14.88,4.42 -30.99,6.62 -48.32,6.62 -24.53,0 -47.42,-5.24 -68.68,-15.7 -21.26,-10.47 -42.19,-27.14 -62.79,-50.04l43.17 -35.33c11.77,16.35 25.1,28.3 39.98,35.81 14.88,7.52 31.15,11.29 48.82,11.29 10.13,0 19.38,-0.98 27.71,-2.94 8.34,-1.96 15.53,-4.74 21.59,-8.34 6.05,-3.59 10.79,-7.85 14.22,-12.75 3.44,-4.91 5.16,-10.3 5.16,-16.19 0,-8.17 -2.46,-15.37 -7.36,-21.58 -4.91,-6.21 -11.12,-11.69 -18.64,-16.43 -7.52,-4.74 -16.03,-8.83 -25.52,-12.27 -9.48,-3.43 -18.64,-6.62 -27.47,-9.57l-11.77 -4.41c-11.12,-3.92 -22,-8.1 -32.63,-12.51 -10.63,-4.42 -20.2,-10.14 -28.7,-17.17 -8.5,-7.03 -15.37,-15.78 -20.6,-26.24 -5.23,-10.47 -7.85,-23.38 -7.85,-38.75 0,-12.11 2.12,-23.88 6.37,-35.33 4.26,-11.45 10.96,-21.5 20.12,-30.17 9.16,-8.67 20.93,-15.62 35.33,-20.85 14.39,-5.23 31.73,-7.85 52,-7.85 11.77,0 23.05,0.98 33.85,2.94 10.79,1.96 21.26,5.32 31.39,10.06 10.14,4.74 20.03,10.95 29.68,18.64 9.65,7.69 19.22,17.25 28.7,28.7l-45.63 36.3 -8.33 -12.27z" data-paper-data="{&quot;glyphName&quot;:&quot;S&quot;,&quot;glyphIndex&quot;:12,&quot;word&quot;:2}"/>
    <polygon class="fil2" points="11050.68,15827.22 11084.53,15697.71 11132.11,15697.71 11095.8,15827.22 " data-paper-data="{&quot;glyphName&quot;:&quot;,&quot;,&quot;glyphIndex&quot;:13,&quot;lastGlyphOfWord&quot;:true,&quot;word&quot;:2}"/>
    <path class="fil2" d="M11683.36 15501c-9.16,-11.12 -19.22,-19.13 -30.18,-24.04 -10.95,-4.91 -23.79,-7.36 -38.51,-7.36 -18.96,0 -33.76,3.68 -44.39,11.04 -10.63,7.35 -15.95,16.27 -15.95,26.73 0,6.54 2.37,12.35 7.11,17.42 4.74,5.08 10.88,9.65 18.4,13.74 7.52,4.09 15.71,7.93 24.54,11.53 8.83,3.59 17.5,6.87 26,9.81l-0.5 0c9.49,3.27 20.2,7.52 32.13,12.75 11.94,5.23 23.22,11.93 33.85,20.12 10.63,8.17 19.63,17.98 26.98,29.43 7.36,11.45 11.04,25.02 11.04,40.72 0,16.35 -3.1,30.83 -9.32,43.42 -6.21,12.59 -14.88,23.14 -26,31.64 -11.11,8.51 -24.12,14.96 -39,19.38 -14.88,4.42 -30.99,6.62 -48.32,6.62 -24.53,0 -47.42,-5.24 -68.68,-15.7 -21.26,-10.47 -42.19,-27.14 -62.79,-50.04l43.17 -35.33c11.77,16.35 25.1,28.3 39.98,35.81 14.88,7.52 31.15,11.29 48.81,11.29 10.14,0 19.38,-0.98 27.72,-2.94 8.34,-1.96 15.53,-4.74 21.58,-8.34 6.06,-3.59 10.8,-7.85 14.23,-12.75 3.44,-4.91 5.15,-10.3 5.15,-16.19 0,-8.17 -2.45,-15.37 -7.35,-21.58 -4.91,-6.21 -11.12,-11.69 -18.64,-16.43 -7.52,-4.74 -16.03,-8.83 -25.52,-12.27 -9.49,-3.43 -18.64,-6.62 -27.47,-9.57l-11.77 -4.41c-11.12,-3.92 -22,-8.1 -32.63,-12.51 -10.63,-4.42 -20.2,-10.14 -28.7,-17.17 -8.51,-7.03 -15.37,-15.78 -20.6,-26.24 -5.24,-10.47 -7.85,-23.38 -7.85,-38.75 0,-12.11 2.12,-23.88 6.37,-35.33 4.26,-11.45 10.96,-21.5 20.12,-30.17 9.16,-8.67 20.93,-15.62 35.33,-20.85 14.38,-5.23 31.72,-7.85 51.99,-7.85 11.78,0 23.06,0.98 33.85,2.94 10.8,1.96 21.26,5.32 31.4,10.06 10.13,4.74 20.03,10.95 29.68,18.64 9.65,7.69 19.22,17.25 28.69,28.7l-45.62 36.3 -8.33 -12.27z" data-paper-data="{&quot;glyphName&quot;:&quot;S&quot;,&quot;glyphIndex&quot;:14,&quot;firstGlyphOfWord&quot;:true,&quot;word&quot;:3}"/>
    <polygon class="fil2" points="11859.14,15761.49 11859.14,15418.09 12071.08,15418.09 12071.08,15471.07 11912.13,15471.07 11912.13,15556.92 12056.85,15556.92 12056.85,15609.9 11912.13,15609.91 11912.13,15708.52 12072.55,15708.51 12072.55,15761.48 " data-paper-data="{&quot;glyphName&quot;:&quot;E&quot;,&quot;glyphIndex&quot;:15,&quot;word&quot;:3}"/>
    <path class="fil2" d="M12478.91 15707.04c-14.72,17.01 -31.73,30.66 -51.02,40.96 -19.3,10.31 -42.84,15.45 -70.64,15.45 -26.16,0 -49.38,-4.99 -69.66,-14.96 -20.28,-9.97 -37.29,-23.14 -51.02,-39.49 -13.73,-16.35 -24.2,-35.07 -31.4,-56.17 -7.19,-21.1 -10.79,-42.76 -10.79,-65 0,-22.57 3.02,-44.32 9.08,-65.25 6.05,-20.93 15.37,-39.49 27.96,-55.68 12.59,-16.18 28.53,-29.11 47.83,-38.75 19.3,-9.65 42.03,-14.47 68.19,-14.47 27.8,0 51.92,5.56 72.36,16.69 20.44,11.11 38.84,26.33 55.19,45.62l-38.75 34.33c-14.07,-17.33 -28.3,-28.94 -42.69,-34.83 -14.38,-5.89 -29.43,-8.83 -45.13,-8.83 -17.33,0 -32.38,3.36 -45.14,10.06 -12.75,6.71 -23.3,15.7 -31.64,26.98 -8.33,11.28 -14.47,24.28 -18.4,39 -3.92,14.72 -5.89,29.93 -5.89,45.62 0,15.7 2.54,30.91 7.61,45.62 5.07,14.73 12.35,27.8 21.83,39.25 9.49,11.45 21.1,20.6 34.83,27.47 13.73,6.87 29.27,10.31 46.6,10.31 13.41,0 25.92,-1.72 37.53,-5.15 11.61,-3.44 22.48,-9.73 32.63,-18.89l0 -77.02 -92.23 0 0 -52.98 145.21 -0.01 0 144.23 -2.45 5.89z" data-paper-data="{&quot;glyphName&quot;:&quot;G&quot;,&quot;glyphIndex&quot;:16,&quot;word&quot;:3}"/>
    <path class="fil2" d="M12742.02 15764.92c-8.51,0 -16.35,-0.49 -23.54,-1.47 -16.03,-2.3 -30.91,-6.54 -44.64,-12.76 -13.74,-6.21 -25.76,-14.31 -36.06,-24.28 -10.3,-9.97 -18.48,-21.74 -24.53,-35.32 -6.05,-13.57 -9.41,-28.7 -10.06,-45.38l0 -227.63 52.98 0.01 0 222.23c0,11.77 2.04,21.92 6.14,30.41 4.09,8.51 9.57,15.63 16.43,21.35 6.87,5.72 14.88,10.13 24.04,13.24 9.15,3.11 18.96,5.16 29.43,6.14 1.64,0.32 2.86,0.49 3.68,0.49 0.82,0 1.72,0 2.7,0l7.36 -0.01c0.98,0 1.88,0 2.7,0 0.82,0 2.04,-0.16 3.68,-0.49 10.47,-0.98 20.36,-3.02 29.68,-6.14 9.31,-3.1 17.42,-7.51 24.28,-13.24 6.87,-5.72 12.35,-12.84 16.43,-21.34 4.09,-8.51 6.13,-18.65 6.13,-30.42l0 -222.23 52.99 0.01 0 227.63c-0.66,16.68 -4.01,31.8 -10.06,45.38 -6.05,13.57 -14.22,25.43 -24.53,35.56 -10.3,10.14 -22.4,18.32 -36.3,24.54 -13.91,6.21 -29.03,10.3 -45.38,12.26l-17.17 1.48 -6.38 -0.02z" data-paper-data="{&quot;glyphName&quot;:&quot;U&quot;,&quot;glyphIndex&quot;:17,&quot;word&quot;:3}"/>
    <path class="fil2" d="M13117.97 15622.66l-61.32 0 0 138.83 -52.98 0 0 -343.4 130.49 0c14.07,0 27.23,2.7 39.49,8.09 12.27,5.4 23.06,12.76 32.37,22.08 9.32,9.32 16.69,20.2 22.08,32.63 5.4,12.43 8.1,25.67 8.1,39.74 0,20.6 -5.64,39.25 -16.93,55.93 -11.28,16.68 -25.59,29.11 -42.92,37.28l77.51 147.67 -59.85 -0.02 -76.04 -138.83zm-61.32 -52.98l77.51 0c6.87,0 13.25,-1.22 19.13,-3.68 5.89,-2.45 11.03,-5.89 15.45,-10.31 4.41,-4.41 7.93,-9.65 10.55,-15.7 2.62,-6.05 3.92,-12.51 3.92,-19.38 0,-13.73 -4.74,-25.34 -14.23,-34.83 -9.49,-9.49 -21.1,-14.39 -34.83,-14.72l-77.5 0.01 0 98.61z" data-paper-data="{&quot;glyphName&quot;:&quot;R&quot;,&quot;glyphIndex&quot;:18,&quot;word&quot;:3}"/>
    <path class="fil2" d="M13577.32 15662.88l-107.93 0 -34.83 98.61 -58.87 0 122.65 -343.4 50.03 0 122.65 343.4 -58.87 0 -34.83 -98.61zm-89.29 -52.49l70.15 0c-3.27,-9.49 -6.3,-17.99 -9.07,-25.51 -2.78,-7.52 -5.48,-14.97 -8.1,-22.32 -2.62,-7.36 -5.31,-14.97 -8.09,-22.82 -2.78,-7.85 -5.97,-17.01 -9.57,-27.47l-35.32 98.12z" data-paper-data="{&quot;glyphName&quot;:&quot;A&quot;,&quot;glyphIndex&quot;:19,&quot;word&quot;:3}"/>
    <polygon class="fil2" points="14029.3,15761.49 13844.84,15516.7 13844.84,15761.49 13792.84,15761.49 13792.84,15418.09 13834.54,15418.09 14020.46,15662.4 14020.46,15418.09 14072.47,15418.09 14072.47,15761.49 " data-paper-data="{&quot;glyphName&quot;:&quot;N&quot;,&quot;glyphIndex&quot;:20,&quot;word&quot;:3}"/>
    <path class="fil2" d="M14315.96 15837.53c-6.54,0 -13.65,-1.22 -21.34,-3.68 -7.69,-2.45 -15.29,-5.64 -22.81,-9.57l13.73 -38.26c4.91,2.94 10.05,5.56 15.45,7.85 5.39,2.29 10.21,3.43 14.47,3.43 5.89,0 10.87,-1.79 14.96,-5.39 4.09,-3.6 6.14,-9.65 6.14,-18.15 0,-1.64 -0.08,-3.35 -0.25,-5.15 -0.16,-1.8 -0.4,-3.68 -0.73,-5.64 -24.2,-1.31 -45.14,-7.2 -62.79,-17.66 -17.67,-10.47 -32.3,-23.8 -43.91,-39.99 -11.61,-16.19 -20.28,-34.5 -26,-54.95 -5.72,-20.44 -8.59,-41.28 -8.59,-62.54 0,-22.57 3.02,-44.32 9.08,-65.25 6.05,-20.93 15.37,-39.49 27.96,-55.68 12.59,-16.18 28.53,-29.11 47.83,-38.75 19.3,-9.65 42.03,-14.47 68.19,-14.47 27.8,0 51.92,5.56 72.36,16.69 20.44,11.11 38.84,26.33 55.19,45.62l-38.75 34.33c-14.07,-17.33 -28.22,-28.94 -42.44,-34.83 -14.23,-5.89 -29.36,-8.83 -45.38,-8.83 -17.33,0 -32.38,3.36 -45.14,10.06 -12.75,6.71 -23.3,15.7 -31.64,26.98 -8.33,11.28 -14.47,24.28 -18.4,39 -3.92,14.72 -5.89,29.93 -5.89,45.62 0,15.7 1.96,30.91 5.89,45.62 3.92,14.73 10.06,27.8 18.4,39.25 8.34,11.45 18.89,20.6 31.64,27.47 12.75,6.87 27.8,10.31 45.14,10.31 16.02,0 31.23,-3.19 45.62,-9.57 14.39,-6.37 28.45,-18.23 42.19,-35.57l38.75 34.34c-13.09,15.7 -27.72,28.86 -43.91,39.49 -16.18,10.63 -34.58,17.74 -55.19,21.34 0.98,4.91 1.48,9.81 1.48,14.72 0,19.62 -5.56,34.83 -16.68,45.62 -11.12,10.8 -26,16.19 -44.65,16.19l0.02 0z" data-paper-data="{&quot;glyphName&quot;:&quot;Ç&quot;,&quot;glyphIndex&quot;:21,&quot;word&quot;:3}"/>
    <path class="fil2" d="M14798.36 15662.88l-107.92 0 -34.83 98.61 -58.87 0 122.65 -343.4 50.03 0 122.64 343.4 -58.87 0 -34.83 -98.61zm-89.28 -52.49l70.15 0c-3.28,-9.49 -6.3,-17.99 -9.08,-25.51 -2.78,-7.52 -5.47,-14.97 -8.09,-22.32 -2.62,-7.36 -5.32,-14.97 -8.09,-22.82 -2.78,-7.85 -5.98,-17.01 -9.57,-27.47l-35.32 98.12z" data-paper-data="{&quot;glyphName&quot;:&quot;A&quot;,&quot;glyphIndex&quot;:22,&quot;lastGlyphOfWord&quot;:true,&quot;word&quot;:3}"/>
    <polygon class="fil2" points="15374.13,15471.07 15374.13,15761.49 15321.16,15761.49 15321.16,15471.07 15239.71,15471.07 15239.71,15418.09 15454.1,15418.09 15454.1,15471.07 " data-paper-data="{&quot;glyphName&quot;:&quot;T&quot;,&quot;glyphIndex&quot;:23,&quot;firstGlyphOfWord&quot;:true,&quot;word&quot;:4}"/>
    <path class="fil2" d="M15843.78 15588.31c0,-16.02 -2.2,-31.39 -6.61,-46.11 -4.42,-14.73 -11.12,-27.72 -20.12,-39.01 -9,-11.28 -20.2,-20.2 -33.61,-26.73 -13.41,-6.54 -29.11,-9.82 -47.1,-9.82 -17.66,0 -33.19,3.28 -46.6,9.82 -13.41,6.53 -24.53,15.36 -33.36,26.49 -8.83,11.11 -15.53,24.04 -20.11,38.75 -4.58,14.72 -6.87,30.25 -6.87,46.6 0,16.35 2.29,31.89 6.87,46.61 4.57,14.72 11.28,27.71 20.11,39 8.84,11.29 19.95,20.28 33.36,26.98 13.41,6.71 28.94,10.05 46.6,10.05 17.99,0 33.69,-3.27 47.1,-9.81 13.41,-6.54 24.61,-15.45 33.61,-26.73 8.99,-11.29 15.7,-24.29 20.12,-39.01 4.41,-14.72 6.61,-30.41 6.61,-47.1l0 0.02zm53.48 -0.48c0,22.89 -3.36,44.96 -10.06,66.22 -6.71,21.26 -16.84,39.99 -30.41,56.17 -13.57,16.19 -30.42,29.2 -50.53,39.01 -20.12,9.81 -43.42,14.72 -69.91,14.72 -26.49,0 -49.71,-4.91 -69.66,-14.72 -19.95,-9.81 -36.71,-22.82 -50.28,-39.01 -13.57,-16.18 -23.72,-34.91 -30.41,-56.17 -6.71,-21.26 -10.06,-43.34 -10.06,-66.22 0,-22.57 3.36,-44.4 10.06,-65.49 6.7,-21.1 16.84,-39.65 30.41,-55.68 13.57,-16.02 30.33,-28.86 50.28,-38.51 19.95,-9.65 43.17,-14.47 69.66,-14.47 26.5,0 49.8,4.82 69.91,14.47 20.11,9.65 36.95,22.49 50.53,38.51 13.57,16.03 23.71,34.59 30.41,55.68 6.71,21.1 10.06,42.92 10.06,65.49z" data-paper-data="{&quot;glyphName&quot;:&quot;O&quot;,&quot;glyphIndex&quot;:24,&quot;word&quot;:4}"/>
    <polygon class="fil2" points="16153.5,15471.07 16153.5,15761.49 16100.51,15761.49 16100.51,15471.07 16019.08,15471.07 16019.08,15418.09 16233.47,15418.09 16233.47,15471.07 " data-paper-data="{&quot;glyphName&quot;:&quot;T&quot;,&quot;glyphIndex&quot;:25,&quot;word&quot;:4}"/>
    <path class="fil2" d="M16510.8 15662.88l-107.93 0 -34.83 98.61 -58.87 0 122.65 -343.4 50.04 0 122.65 343.4 -58.87 0 -34.84 -98.61zm-89.29 -52.49l70.16 0c-3.27,-9.49 -6.3,-17.99 -9.07,-25.51 -2.78,-7.52 -5.48,-14.97 -8.1,-22.32 -2.61,-7.36 -5.31,-14.97 -8.09,-22.82 -2.78,-7.85 -5.97,-17.01 -9.57,-27.47l-35.33 98.12z" data-paper-data="{&quot;glyphName&quot;:&quot;A&quot;,&quot;glyphIndex&quot;:26,&quot;word&quot;:4}"/>
    <polygon class="fil2" points="16726.33,15761.49 16726.33,15418.09 16779.32,15418.09 16779.32,15708.52 16939.24,15708.51 16939.24,15761.48 " data-paper-data="{&quot;glyphName&quot;:&quot;L&quot;,&quot;glyphIndex&quot;:27,&quot;word&quot;:4}"/>
    <path class="fil2" d="M17061.06 15733.04c0,-8.83 2.7,-16.03 8.1,-21.58 5.39,-5.56 12.35,-8.34 20.84,-8.34 8.51,0 15.53,2.78 21.1,8.34 5.56,5.55 8.34,12.75 8.34,21.58 0,8.51 -2.78,15.37 -8.34,20.6 -5.56,5.24 -12.59,7.85 -21.1,7.85 -8.5,0 -15.45,-2.61 -20.84,-7.85 -5.4,-5.23 -8.1,-12.1 -8.1,-20.6zm55.93 -67.7l-53.96 0 0 -246.76 53.96 0 0 246.76z" data-paper-data="{&quot;glyphName&quot;:&quot;!&quot;,&quot;glyphIndex&quot;:28,&quot;lastGlyphOfWord&quot;:true,&quot;word&quot;:4}"/>
   </g>
  </g>
 </g>
</svg>
